<svg width="59" height="54" viewBox="0 0 59 54" fill="none" xmlns="http://www.w3.org/2000/svg">
<path d="M27.5452 26.6486C22.9624 27.5266 22.5204 31.4464 18.905 35.6202C13.6741 41.7122 15.5729 45.9557 19.5325 46.2009C23.3801 46.5062 26.0014 42.2076 30.088 41.7271C34.1582 40.9924 37.9627 44.2144 41.6307 42.643C45.1866 41.1317 45.6434 36.5463 38.6475 32.4042C33.9461 29.6628 32.2566 25.9648 27.5452 26.6486Z" fill="#839AA9"/>
<path d="M16.5669 25.3344C19.7367 28.0559 20.5327 31.7818 18.5707 33.6372C16.6087 35.4925 12.2995 34.7213 9.24187 31.9396C6.07213 29.2181 5.16393 25.5523 7.2381 23.6368C9.31226 21.7214 13.3972 22.6129 16.5669 25.3344Z" fill="#839AA9"/>
<path d="M38.7092 21.9258C36.5054 25.364 36.8616 28.9349 39.3944 29.9598C41.9272 30.9847 45.6902 28.9677 47.7187 25.498C49.9224 22.0598 49.5663 18.4889 47.0335 17.4641C44.5007 16.4392 40.7377 18.4561 38.7092 21.9258Z" fill="#839AA9"/>
<path d="M25.7519 15.8659C27.2411 19.7994 26.07 23.8069 23.1003 24.8578C20.1306 25.9088 16.4211 23.4358 14.9318 19.5024C13.4426 15.5689 14.6138 11.5614 17.5834 10.5105C20.5531 9.45951 24.2627 11.9325 25.7519 15.8659Z" fill="#839AA9"/>
<path d="M26.7427 15.062C26.5627 19.1201 28.7977 22.2672 31.7748 22.205C34.7519 22.1428 37.2679 18.8774 37.4478 14.8193C37.6278 10.7612 35.3929 7.61407 32.4157 7.67625C29.4386 7.73844 26.9226 11.0039 26.7427 15.062Z" fill="#839AA9"/>
</svg>
