<svg aria-hidden="true" style="position: absolute; width: 0; height: 0; overflow: hidden;" version="1.1" xmlns="http://www.w3.org/2000/svg" xmlns:xlink="http://www.w3.org/1999/xlink">
<defs>
<symbol id="icon-basket" viewBox="0 0 32 32">
<path d="M1.857 12.878h28.293v-2.081h-28.293v2.081zM29.532 12.26v0.914h2.081v-0.914h-2.081zM26.173 29.528h-20.338v2.081h20.338v-2.081zM2.475 13.174v-0.914h-2.081v0.914h2.081zM6.421 29.891c-2.595-5.19-3.946-10.914-3.946-16.717h-2.081c0 6.127 1.426 12.169 4.167 17.649l1.861-0.932zM5.834 29.528c0.25 0 0.477 0.142 0.587 0.362l-1.861 0.932c0.119 0.236 0.3 0.435 0.525 0.574s0.484 0.213 0.748 0.213v-2.081zM25.586 29.891c0.055-0.109 0.138-0.201 0.242-0.265s0.223-0.098 0.345-0.098v2.081c0.541 0 1.032-0.304 1.274-0.787l-1.861-0.932zM29.532 13.174c0 5.803-1.353 11.526-3.946 16.717l1.861 0.932c2.74-5.48 4.167-11.523 4.167-17.649h-2.081zM30.15 12.878c-0.164 0-0.321-0.065-0.437-0.181s-0.181-0.273-0.181-0.437h2.081c0-0.388-0.154-0.76-0.429-1.035s-0.647-0.429-1.035-0.429v2.081zM1.857 10.797c-0.388 0-0.76 0.154-1.035 0.429s-0.429 0.647-0.429 1.035h2.081c0 0.164-0.065 0.321-0.181 0.437s-0.273 0.181-0.437 0.181v-2.081zM8.571 12.372l6.244-10.406-1.788-1.070-6.244 10.407 1.788 1.070zM17.192 1.966l6.244 10.406 1.786-1.070-6.244-10.407-1.786 1.070zM10.8 21.203h10.406v-2.081h-10.406v2.081z"></path>
</symbol>
<symbol id="icon-dogclub-logo" viewBox="0 0 180 32">
<path d="M2.086 31.333v-23.339l-0.853-4.267 0.853-2.603h12.715c2.048 0 4.011 0.199 5.888 0.597 1.906 0.37 3.598 1.081 5.077 2.133 1.507 1.052 2.688 2.56 3.541 4.523 0.882 1.963 1.323 4.508 1.323 7.637s-0.441 5.703-1.323 7.723c-0.882 1.991-2.077 3.541-3.584 4.651s-3.214 1.877-5.12 2.304c-1.877 0.427-3.812 0.64-5.803 0.64h-12.715zM9.852 24.507h4.949c2.503 0 4.423-0.654 5.76-1.963 1.337-1.337 2.005-3.513 2.005-6.528s-0.683-5.106-2.048-6.272c-1.337-1.195-3.243-1.792-5.717-1.792h-4.949v16.555zM48.51 31.76c-1.821 0-3.598-0.213-5.333-0.64-1.707-0.455-3.257-1.252-4.651-2.389-1.365-1.138-2.461-2.716-3.285-4.736-0.797-2.020-1.195-4.608-1.195-7.765s0.398-5.746 1.195-7.765c0.825-2.020 1.92-3.598 3.285-4.736 1.394-1.138 2.944-1.92 4.651-2.347 1.735-0.455 3.513-0.683 5.333-0.683s3.584 0.228 5.291 0.683c1.735 0.455 3.285 1.252 4.651 2.389 1.394 1.138 2.489 2.716 3.285 4.736 0.825 2.020 1.237 4.594 1.237 7.723s-0.413 5.703-1.237 7.723c-0.797 2.020-1.892 3.598-3.285 4.736-1.365 1.138-2.916 1.934-4.651 2.389-1.707 0.455-3.47 0.683-5.291 0.683zM48.51 24.507c2.105 0 3.698-0.626 4.779-1.877s1.621-3.385 1.621-6.4c0-3.015-0.541-5.148-1.621-6.4s-2.674-1.877-4.779-1.877c-2.077 0-3.655 0.64-4.736 1.92s-1.621 3.399-1.621 6.357c0 2.958 0.54 5.077 1.621 6.357s2.659 1.92 4.736 1.92zM82.55 31.76c-2.19 0-4.267-0.213-6.229-0.64-1.934-0.455-3.655-1.252-5.163-2.389-1.479-1.138-2.645-2.716-3.499-4.736s-1.28-4.608-1.28-7.765c0-3.044 0.455-5.561 1.365-7.552 0.91-2.020 2.119-3.612 3.627-4.779 1.536-1.166 3.228-1.991 5.077-2.475 1.877-0.484 3.769-0.725 5.675-0.725 1.394 0 2.603 0.071 3.627 0.213s2.005 0.327 2.944 0.555l5.803 3.371-2.987 6.613-9.429-3.328c-1.365 0-2.631 0.27-3.797 0.811-1.138 0.54-2.062 1.408-2.773 2.603-0.683 1.166-1.024 2.745-1.024 4.736 0 3.214 0.711 5.476 2.133 6.784 1.451 1.28 3.427 1.92 5.931 1.92 1.28 0 2.275-0.057 2.987-0.171 0.739-0.142 1.308-0.256 1.707-0.341v-3.243h-5.419v-6.315h13.568l0.469 2.56-0.939 3.541v8.96c-0.313 0.114-1.024 0.313-2.133 0.597-1.081 0.284-2.503 0.555-4.267 0.811-1.735 0.256-3.726 0.384-5.973 0.384zM109.782 31.653c-1.259 0-2.528-0.181-3.808-0.544-1.259-0.363-2.421-0.971-3.488-1.824-1.045-0.875-1.888-2.059-2.528-3.552-0.64-1.515-0.96-3.424-0.96-5.728 0-2.325 0.448-4.352 1.344-6.080 0.917-1.749 2.165-3.115 3.744-4.096s3.371-1.472 5.376-1.472c0.96 0 1.877 0.085 2.752 0.256 0.896 0.171 1.579 0.363 2.048 0.576l3.552 3.232-2.24 3.36-5.472-2.816c-1.195 0-2.272 0.288-3.232 0.864s-1.728 1.397-2.304 2.464c-0.555 1.045-0.832 2.283-0.832 3.712 0 1.643 0.288 2.997 0.864 4.064 0.597 1.067 1.408 1.867 2.432 2.4 1.024 0.512 2.165 0.768 3.424 0.768 1.28 0 2.379-0.107 3.296-0.32 0.917-0.235 1.685-0.491 2.304-0.768 0.619-0.299 1.088-0.555 1.408-0.768v4.352c-0.597 0.405-1.515 0.832-2.752 1.28-1.216 0.427-2.859 0.64-4.928 0.64zM121.525 31.333l-0.64-1.92 0.64-3.2v-17.536h4.48v13.152l-0.32 5.344h0.64l7.008-0.32 2.273-0.32 2.176 2.752-1.568 2.048h-14.689zM147.767 31.653c-2.197 0-3.925-0.363-5.184-1.088-1.237-0.725-2.123-1.792-2.656-3.2-0.512-1.429-0.768-3.168-0.768-5.216v-8.32l0.032-3.232-0.032-1.92h4.544v13.792c0 1.493 0.299 2.709 0.896 3.648 0.597 0.917 1.653 1.376 3.168 1.376s2.581-0.427 3.2-1.28c0.64-0.875 0.96-2.123 0.96-3.744v-13.792h4.448v13.472c0 2.005-0.256 3.723-0.768 5.152-0.491 1.408-1.365 2.485-2.624 3.232-1.237 0.747-2.976 1.12-5.216 1.12zM160.525 31.333v-17.536l-0.64-3.2 0.64-1.92h8.32c1.621 0 3.019 0.192 4.192 0.576 1.195 0.363 2.123 0.96 2.784 1.792s0.992 1.941 0.992 3.328c0 0.853-0.149 1.664-0.448 2.432-0.277 0.747-0.757 1.376-1.44 1.888 1.344 0.469 2.368 1.173 3.072 2.112s1.056 2.187 1.056 3.744c0 2.368-0.661 4.096-1.984 5.184-1.323 1.067-3.317 1.6-5.984 1.6h-10.56zM165.005 17.797h4.416c1.792 0 2.688-0.789 2.688-2.368 0-0.789-0.181-1.419-0.544-1.888s-1.077-0.704-2.144-0.704h-4.416v4.96zM165.005 27.173h5.76c1.131 0 1.952-0.256 2.464-0.768 0.533-0.512 0.8-1.227 0.8-2.144 0-0.875-0.288-1.536-0.864-1.984-0.555-0.448-1.461-0.672-2.72-0.672h-5.44v5.568z"></path>
</symbol>
<symbol id="icon-facebook" viewBox="0 0 32 32">
<path d="M29 16c0-2.571-0.762-5.085-2.191-7.222s-3.459-3.804-5.834-4.788c-2.375-0.984-4.989-1.241-7.511-0.74s-4.838 1.74-6.656 3.558c-1.818 1.818-3.056 4.134-3.558 6.656s-0.244 5.136 0.74 7.511c0.984 2.375 2.65 4.406 4.788 5.834s4.651 2.191 7.222 2.191c3.447-0.003 6.752-1.374 9.189-3.811s3.808-5.742 3.811-9.189zM17 26.95v-7.95h3c0.265 0 0.52-0.105 0.707-0.293s0.293-0.442 0.293-0.707c0-0.265-0.105-0.52-0.293-0.707s-0.442-0.293-0.707-0.293h-3v-3c0-0.53 0.211-1.039 0.586-1.414s0.884-0.586 1.414-0.586h2c0.265 0 0.52-0.105 0.707-0.293s0.293-0.442 0.293-0.707c0-0.265-0.105-0.52-0.293-0.707s-0.442-0.293-0.707-0.293h-2c-1.060 0.003-2.075 0.426-2.825 1.175s-1.172 1.765-1.175 2.825v3h-3c-0.265 0-0.52 0.105-0.707 0.293s-0.293 0.442-0.293 0.707c0 0.265 0.105 0.52 0.293 0.707s0.442 0.293 0.707 0.293h3v7.95c-2.819-0.257-5.43-1.592-7.291-3.725s-2.827-4.902-2.698-7.73c0.129-2.828 1.343-5.497 3.389-7.453s4.768-3.047 7.599-3.047 5.552 1.091 7.599 3.047c2.047 1.956 3.261 4.625 3.389 7.453s-0.838 5.596-2.698 7.73-4.472 3.468-7.291 3.725z"></path>
</symbol>
<symbol id="icon-icon_feed" viewBox="0 0 32 32">
<path d="M22.415 19.13c-0.748-0.148-1.489 0.341-1.801 1.188-0.061 0.164-0.102 0.334-0.126 0.507 0.772-0.462 1.447-1.018 2.030-1.674l-0.103-0.020z"></path>
<path d="M23.109 10.926c1.403-1.12 1.801-3.423 0.888-5.144s-2.791-2.208-4.194-1.088c-1.403 1.12-1.801 3.423-0.888 5.144s2.791 2.208 4.194 1.088z"></path>
<path d="M28.673 11.865c-1.311-1.991-3.092-2.014-4.075-1.202s-0.911 2.874-0.090 4.259c0.037 0.076 0.077 0.156 0.116 0.235 0.283-1.053 0.323-1.818 0.323-1.828 0.029-0.893 0.62-1.591 1.345-1.591 0.017 0 0.034 0 0.051 0.001 0.742 0.033 1.324 0.801 1.297 1.712v0.003l-0.001 0.015c-0.022 0.51-0.164 2.343-1.067 4.522-0.082 0.2-0.179 0.419-0.29 0.651 0.189 0.443 0.371 0.896 0.537 1.356l-1.149-0.226c-0.777 1.277-1.967 2.726-3.738 3.861l5.138 5.216c0.314 0.319 0.695 0.475 1.073 0.475 0.484 0 0.965-0.255 1.298-0.748 0.593-0.879 0.493-2.181-0.224-2.909l-1.236-1.255 0.4 0.079c0.124 0.024 0.246 0.030 0.367 0.022 0.29 0.017 0.632-0.107 1.051-0.287 1.166-0.498 2.488-1.377 2.144-4.055-0.694-3.597-1.482-5.555-3.271-8.306z"></path>
<path d="M26.332 17.84c0.97-2.342 1.033-4.28 1.039-4.402 0.022-0.73-0.442-1.343-1.037-1.37s-1.093 0.541-1.117 1.269l-0-0c-0.002 0.084-0.092 1.678-0.879 3.475-0.796 1.799-2.226 3.82-5.122 5.003-0.565 0.229-0.873 0.976-0.686 1.67 0.149 0.556 0.571 0.908 1.024 0.908 0.112 0 0.226-0.022 0.338-0.067 3.541-1.421 5.48-4.147 6.441-6.486z"></path>
<path d="M12.134 24.129c0.49 0.114 1.080 0.302 1.236 0.505 0.42 0.543 0.625 1.665 1.169 1.744 0.38 0.055 0.514 0.045 0.985-0.328 0.465-0.369 0.023-1.805-0.088-2.357-0.157-0.783 0.218-1.643 0.224-1.696 0.005-0.044 0.328-0.875 1.262-0.559 0.326 0.111 0.135-0.629-0.376-0.999-0.608-0.439-1.047-0.234-1.492 0.193-0.858-0.805-2.202-0.648-2.966-0.297-0.122 0.61-0.169 1.201-0.169 1.744-0 0.826 0.107 1.542 0.215 2.050zM14.312 22.392c0.2-0.167 0.472-0.104 0.609 0.141s0.084 0.579-0.115 0.746c-0.2 0.167-0.472 0.104-0.609-0.141s-0.085-0.579 0.115-0.746z"></path>
<path d="M11.538 20.316c-0.199 0.003-0.388-0.004-0.569-0.021-0.063-0.019-0.129-0.031-0.197-0.027-0.004 0-0.008 0.002-0.012 0.002-2.749-0.383-3.497-2.933-6.708-0.287-0.97-0.35-2.126-1.101-3.002-2.705-0.177-0.322-0.533-0.407-0.796-0.19-0.263 0.217-0.333 0.654-0.155 0.976 0.833 1.51 1.863 2.395 2.829 2.913-0.011 0.029-0.023 0.064-0.035 0.097-0.248 0.457-0.442 1.059-0.568 1.861-0.018 0.117-0.804 6.273 0.431 6.273s1.574-4.656 2.264-5.253c0.097 0.011 1.929 2.365 3.494 2.069 0.367-0.070 0.863-0.347 1.277-0.643l0.677 3.324c0.076 0.373 0.348 0.626 0.653 0.626 0.033 0 0.067-0.003 0.101-0.009 0.344-0.063 0.591-0.434 0.573-0.86l-0.176-4.139c-0.118-0.552-0.238-1.333-0.238-2.246 0-0.549 0.044-1.144 0.158-1.763z"></path>
<path d="M17.55 28.446h-0.17l-0.347-1.319h-3.889l-0.347 1.319h-0.17c-0.137 0-0.248 0.136-0.248 0.305s0.111 0.304 0.248 0.304h4.923c0.137 0 0.248-0.136 0.248-0.304s-0.111-0.305-0.248-0.305z"></path>
</symbol>
<symbol id="icon-icon_groom" viewBox="0 0 32 32">
<path d="M21.1 9.363c-0.085-0.371-0.316-0.65-0.633-0.765-0.023-0.008-0.047-0.009-0.070-0.016 0.228-1.036 0.87-4.801-1.234-7.004-1.219-1.277-3.121-1.782-5.651-1.504-0.046-0.019-0.097-0.030-0.149-0.031-1.987-0.064-3.508 0.484-4.504 1.626-1.953 2.238-1.246 6.013-1.042 6.908-0.030 0.008-0.061 0.010-0.090 0.020-0.318 0.115-0.549 0.394-0.633 0.765-0.076 0.331-0.033 0.712 0.118 1.075 0.278 0.665 0.841 1.090 1.381 1.090 0.058 0 0.115-0.005 0.172-0.015 0.458 1.357 1.223 2.486 2.487 3.179v1.392h-0.656v3.925h7.002v-3.925h-0.657v-1.383c1.266-0.692 2.031-1.824 2.489-3.187 0.056 0.010 0.113 0.014 0.17 0.014 0.54 0 1.103-0.425 1.381-1.089 0.151-0.363 0.194-0.745 0.118-1.075zM7.814 10.22c-0.105-0.251-0.137-0.518-0.088-0.732 0.039-0.169 0.125-0.289 0.236-0.33 0.030-0.011 0.063-0.016 0.098-0.016 0.063 0 0.133 0.018 0.205 0.051 0.074 0.599 0.179 1.18 0.326 1.731-0.247-0.005-0.594-0.269-0.776-0.705zM17.312 16.684c-0.643 0.629-1.84 1.052-3.215 1.052s-2.573-0.424-3.215-1.052h0.694c0.178 0 0.323-0.135 0.323-0.301v-1.392c0.63 0.241 1.362 0.392 2.215 0.432 0.839-0.040 1.56-0.188 2.182-0.425v1.385c0 0.166 0.145 0.301 0.323 0.301h0.694zM19.296 8.874c-0.021 0.185-0.043 0.37-0.069 0.547-0.067 0.453-0.153 0.88-0.258 1.284-0.040 0.152-0.084 0.299-0.13 0.444-0.396 1.263-1.020 2.247-1.984 2.876-0.142 0.093-0.296 0.174-0.454 0.251-0.633 0.312-1.384 0.503-2.289 0.546-0.902-0.043-1.653-0.23-2.287-0.537-0.168-0.081-0.331-0.168-0.483-0.267-0.966-0.63-1.591-1.612-1.988-2.872-0.046-0.145-0.090-0.291-0.13-0.444-0.105-0.403-0.191-0.829-0.258-1.281-0.027-0.178-0.048-0.362-0.069-0.547-0.057-0.495-0.098-1.013-0.122-1.556 0.076-0.441 0.186-0.807 0.318-1.107 0.199-0.031 0.628-0.118 1.133-0.334 0.080 0.102 0.215 0.167 0.353 0.158 0.072-0.003 1.024-0.054 2.030-0.421-0.005 0.042-0.002 0.086 0.009 0.129 0.043 0.168 0.203 0.288 0.389 0.292 0.086 0.003 1.797 0.022 2.853-1.101 0.407 0.908 1.322 2.395 3.187 3.328l0.278 0.357c-0.009 0.087-0.020 0.17-0.030 0.256zM20.379 10.22c-0.182 0.435-0.527 0.699-0.774 0.704 0.146-0.552 0.25-1.132 0.324-1.731 0.072-0.033 0.142-0.050 0.205-0.050 0.035 0 0.068 0.005 0.098 0.016 0.152 0.055 0.213 0.23 0.236 0.33 0.049 0.214 0.016 0.481-0.089 0.732zM13.364 11.002v-0.843c0-0.166 0.145-0.301 0.323-0.301s0.323 0.135 0.323 0.301v0.775h0.497c0.178 0 0.323 0.135 0.323 0.301s-0.145 0.301-0.323 0.301h-0.57c-0.316 0-0.573-0.239-0.573-0.533zM11.819 9.069c0 0.323-0.282 0.585-0.629 0.585s-0.629-0.262-0.629-0.585c0-0.323 0.282-0.585 0.629-0.585s0.629 0.262 0.629 0.585zM17.633 9.069c0 0.323-0.282 0.585-0.629 0.585s-0.629-0.262-0.629-0.585c0-0.323 0.282-0.585 0.629-0.585s0.629 0.262 0.629 0.585zM15.679 12.854c0 0.485-0.817 0.658-1.582 0.658s-1.582-0.173-1.582-0.658c0-0.166 0.145-0.301 0.323-0.301 0.144 0 0.266 0.088 0.308 0.209 0.108 0.060 0.448 0.149 0.951 0.149s0.843-0.089 0.951-0.149c0.042-0.121 0.164-0.209 0.308-0.209 0.178 0 0.323 0.135 0.323 0.301zM31.891 22.231c-0.093-0.152-0.237-0.265-0.409-0.331 0.027-0.165 0-0.339-0.095-0.496-0.093-0.152-0.237-0.265-0.409-0.33 0.027-0.165 0-0.339-0.095-0.496s-0.243-0.267-0.409-0.33c0.027-0.165 0.001-0.34-0.095-0.496-0.11-0.18-0.288-0.308-0.502-0.363-0.212-0.054-0.437-0.029-0.63 0.073l-0.328 0.173c-0.062-0.095-0.145-0.18-0.246-0.252v-0.329h1.831c0.178 0 0.323-0.135 0.323-0.301s-0.145-0.301-0.323-0.301h-1.831v-0.301h1.831c0.178 0 0.323-0.135 0.323-0.301s-0.145-0.301-0.323-0.301h-1.831v-0.301h1.831c0.178 0 0.323-0.135 0.323-0.301s-0.145-0.301-0.323-0.301h-1.831v-0.301h1.831c0.178 0 0.323-0.135 0.323-0.301s-0.145-0.301-0.323-0.301h-1.831l0.002-0.301h1.829c0.178 0 0.323-0.135 0.323-0.301s-0.145-0.301-0.323-0.301h-1.829c-0.364 0-0.648 0.308-0.648 0.701v1.448c-0.028-0.342-0.164-0.685-0.404-0.98-0.59-0.728-1.602-0.947-2.253-0.489-0.34 0.239-0.512 0.615-0.519 1.023-0.424-0.105-0.861-0.054-1.2 0.184-0.327 0.23-0.519 0.603-0.526 1.023-0.006 0.389 0.141 0.789 0.415 1.127s0.648 0.579 1.052 0.68c0.135 0.034 0.27 0.050 0.402 0.050 0.295 0 0.573-0.082 0.799-0.241 0.021-0.015 0.037-0.035 0.057-0.051l1.014 1.131-0.366 0.734c-0.028 0.045-0.053 0.091-0.076 0.139l-2.131 1.125-3.636-5.555c-0.089-0.136-0.198-0.253-0.314-0.36-0.192-0.231-0.47-0.396-0.793-0.449-0.314-0.097-0.648-0.128-0.98-0.076v4.029c0.079 0.023 0.152 0.056 0.216 0.101 0.119 0.083 0.206 0.2 0.242 0.338l1.59 6.197v-2.518l1.211 1.851c0.385 0.588 1.058 0.914 1.75 0.914 0.343 0 0.69-0.080 1.008-0.249l3.88-2.048c0.016-0.008 0.028-0.020 0.044-0.029 0.030 0.002 0.061 0.006 0.091 0.006 0.252 0 0.508-0.059 0.743-0.183l0.729-0.385 0.045 0.050c0.147 0.164 0.407 0.192 0.591 0.063l0.407-0.286c0.134-0.094 0.185-0.254 0.148-0.409l0.317-0.168c0.193-0.102 0.331-0.267 0.39-0.467s0.031-0.407-0.079-0.586zM30.011 20.843l0.059-0.031c0.028-0.014 0.059-0.022 0.090-0.022 0.016 0 0.033 0.002 0.049 0.006 0.048 0.012 0.087 0.041 0.111 0.080 0.050 0.082 0.019 0.187-0.069 0.233l-0.846 0.447c-0.043 0.022-0.092 0.027-0.139 0.016s-0.087-0.041-0.111-0.080c-0.050-0.082-0.019-0.187 0.069-0.233l0.787-0.416zM28.973 20.375l0.008-0.016c0.006-0.012 0.008-0.025 0.013-0.037 0.006-0.014 0.010-0.028 0.015-0.043l0.556-0.294c0.028-0.015 0.059-0.022 0.090-0.022 0.016 0 0.033 0.002 0.049 0.006 0.048 0.012 0.087 0.041 0.111 0.080 0.031 0.051 0.028 0.11 0.002 0.159-0.016 0.030-0.038 0.057-0.071 0.075l-0.846 0.447c-0.035 0.018-0.075 0.022-0.115 0.018l0.187-0.373zM25.273 18.735c-0.156 0.109-0.355 0.082-0.46 0.056-0.216-0.054-0.43-0.196-0.587-0.389s-0.244-0.423-0.241-0.632c0.002-0.101 0.028-0.286 0.184-0.396 0.078-0.055 0.175-0.081 0.279-0.081 0.253 0 0.555 0.152 0.767 0.413 0.299 0.369 0.325 0.839 0.058 1.027zM25.946 17.194c-0.299-0.368-0.325-0.839-0.057-1.027 0.078-0.055 0.174-0.081 0.279-0.081 0.253 0 0.555 0.153 0.767 0.414 0.157 0.193 0.245 0.423 0.242 0.631-0.002 0.101-0.028 0.286-0.184 0.396s-0.355 0.082-0.459 0.056c-0.216-0.054-0.43-0.196-0.587-0.389zM26.778 19.61c-0.147-0.182-0.109-0.44 0.087-0.577s0.473-0.101 0.62 0.081c0.052 0.064 0.072 0.137 0.080 0.21-0.121 0.073-0.223 0.172-0.287 0.298l-0.070 0.141c-0.158 0.026-0.326-0.025-0.43-0.153zM29.319 23.741l-0.296 0.156c-0.413 0.219-0.942 0.083-1.177-0.301l-0.799-1.308c-0.114-0.187-0.143-0.403-0.082-0.61l0.004-0.007 0.896-1.795c0.023-0.045 0.085-0.075 0.162-0.081 0.057-0.005 0.121 0.001 0.187 0.030s0.113 0.071 0.145 0.114c0.007 0.010 0.016 0.019 0.021 0.029 0.027 0.050 0.034 0.1 0.015 0.138l-0.793 1.584c-0.013 0.025-0.015 0.052-0.020 0.078-0.023 0.13 0.042 0.263 0.177 0.322 0.044 0.019 0.090 0.028 0.136 0.028s0.090-0.012 0.132-0.029v1.428c0 0.166 0.145 0.301 0.323 0.301s0.323-0.135 0.323-0.301v-1.043l0.979 1.092-0.333 0.176zM29.91 22.382c-0.043 0.022-0.093 0.029-0.139 0.016s-0.087-0.041-0.111-0.080c-0.050-0.082-0.019-0.187 0.069-0.233l0.846-0.447c0.028-0.015 0.059-0.022 0.090-0.022 0.016 0 0.033 0.002 0.049 0.006 0.047 0.012 0.087 0.041 0.111 0.080 0.050 0.082 0.019 0.187-0.069 0.233l-0.846 0.447zM31.347 22.658c-0.013 0.044-0.044 0.081-0.086 0.103 0 0 0 0-0 0l-0.845 0.447c-0.038 0.021-0.081 0.024-0.122 0.018-0.052-0.009-0.101-0.036-0.129-0.082-0.050-0.082-0.019-0.187 0.069-0.233l0.846-0.447c0.028-0.014 0.059-0.022 0.090-0.022 0.005 0 0.010 0.002 0.015 0.002 0.011 0.001 0.023 0.002 0.034 0.004 0.048 0.012 0.087 0.041 0.111 0.081s0.030 0.085 0.017 0.13zM20.551 31.361l-0.18-3.894c-0.001-0.010-0.002-0.020-0.005-0.031l-1.761-6.865c-0.006-0.026-0.020-0.049-0.038-0.070-0.048-0.057-0.131-0.094-0.224-0.094h-8.492c-0.093 0-0.176 0.037-0.224 0.094-0.018 0.021-0.032 0.044-0.038 0.070l-1.546 6.030-0.241-0.126c-0.051-0.026-0.102-0.047-0.152-0.068l1.52-5.928c0.035-0.138 0.123-0.255 0.242-0.338 0.064-0.044 0.137-0.078 0.215-0.1v-4.014c-0.754-0.227-1.614-0.035-2.17 0.555l-6.948 7.366c-0.385 0.409-0.565 0.951-0.493 1.49s0.389 1.025 0.87 1.333l3.986 2.555c0.124 0.080 0.256 0.14 0.391 0.191 0.163 0.174 0.357 0.323 0.577 0.437l1.815 0.941c0.004 0.002 0.008 0.002 0.011 0.004l-0.022 0.464-0.020 0.431c-0.003 0.059 0.029 0.102 0.056 0.128 0.051 0.050 0.129 0.079 0.211 0.079h12.414c0.083 0 0.16-0.029 0.212-0.079 0.027-0.026 0.058-0.070 0.056-0.128l-0.020-0.431zM5.103 24.849l2.477-2.625v4.154c-0.081-0.031-0.163-0.055-0.244-0.076-0.048-0.037-0.089-0.078-0.141-0.112l-2.091-1.341zM9.953 28.41c-0.029 0.049-0.098 0.067-0.15 0.040-0 0-0 0-0 0l-1.469-0.761c-0.081-0.042-0.177-0.040-0.264-0.008-0.079 0.028-0.149 0.080-0.191 0.149s-0.053 0.152-0.029 0.229c0.023 0.077 0.079 0.142 0.154 0.181l0.001 0.001 1.759 0.912c0.034 0.018 0.047 0.046 0.052 0.061s0.010 0.046-0.009 0.078c-0.019 0.032-0.049 0.043-0.066 0.048s-0.050 0.009-0.084-0.009l-1.76-0.913c-0.036-0.018-0.075-0.027-0.114-0.030-0.070-0.005-0.14 0.015-0.203 0.049-0.006 0.003-0.012 0.006-0.018 0.009-0.048 0.030-0.092 0.066-0.12 0.112-0.042 0.070-0.052 0.152-0.029 0.229 0.020 0.066 0.067 0.119 0.126 0.159 0.010 0.007 0.017 0.016 0.028 0.022l1.469 0.761c0.034 0.018 0.047 0.046 0.052 0.062s0.010 0.045-0.009 0.078c-0.019 0.032-0.049 0.044-0.066 0.048s-0.049 0.009-0.084-0.009l-1.633-0.846c-0.102-0.053-0.259-0.032-0.359 0.025-0.097 0.056-0.155 0.156-0.152 0.262 0.002 0.056 0.022 0.108 0.053 0.154 0.028 0.041 0.066 0.077 0.113 0.101l1.125 0.583c0.034 0.018 0.047 0.046 0.052 0.061s0.010 0.046-0.009 0.078c-0.029 0.049-0.098 0.068-0.15 0.040l-1.815-0.941c-0.301-0.156-0.538-0.405-0.667-0.702-0.175-0.402-0.155-0.841 0.053-1.175 0.253-0.406 0.74-0.707 1.282-0.707 0.22 0 0.448 0.051 0.674 0.162 0.006 0.003 0.013 0.005 0.020 0.009l2.395 1.256c0.034 0.018 0.047 0.047 0.052 0.062s0.010 0.046-0.009 0.077zM17.943 26.919c-0.009 0.528-0.557 0.759-0.836 0.351l-0.281-0.41c-0.075 0.243-0.188 0.471-0.336 0.679 0.001 0.032 0.005 0.064 0.005 0.097 0 1.363-1.073 2.468-2.398 2.468s-2.398-1.105-2.398-2.468c0-0.033 0.003-0.064 0.005-0.097-0.147-0.208-0.261-0.436-0.336-0.679l-0.281 0.41c-0.279 0.408-0.827 0.177-0.837-0.351-0.004-0.247-0.014-0.503-0.031-0.754-0.061-0.881 1.229-1.295 1.81-1.436 0.517-0.346 1.251-0.501 2.068-0.501s1.551 0.156 2.068 0.501c0.581 0.141 1.871 0.555 1.81 1.436-0.018 0.251-0.027 0.507-0.032 0.754zM13.114 28.749c0-0.371 0.44-0.672 0.983-0.672s0.983 0.301 0.983 0.672c0 0.371-0.44 0.672-0.983 0.672s-0.983-0.301-0.983-0.672z"></path>
</symbol>
<symbol id="icon-icon_walk" viewBox="0 0 32 32">
<path d="M6.231 25.595l1.154-3.878-0.42-1.144c-0.891-0.149-1.626-0.597-2.098-1.193l-1.573 5.221-3.094 5.221c-0.42 0.696-0.157 1.591 0.577 1.989s1.678 0.149 2.098-0.547l3.251-5.37c0.052-0.099 0.105-0.199 0.105-0.298z"></path>
<path d="M1.090 14.764c0.483 0.253 1.126 0.051 1.394-0.456l2.413-4.658 0.429-0.304 0.215-1.266c0.107-0.658 0.429-1.266 0.858-1.772l-2.896 1.772c-0.161 0.101-0.268 0.253-0.375 0.405l-2.521 4.911c-0.268 0.506-0.054 1.114 0.483 1.367z"></path>
<path d="M10.338 5.408c1.631 0 2.954-1.211 2.954-2.704s-1.322-2.704-2.954-2.704c-1.631 0-2.954 1.211-2.954 2.704s1.322 2.704 2.954 2.704z"></path>
<path d="M28.969 25.591c0 0 0.052 0.050 0.052 0.1 0.418-0.249 0.575-0.797 0.575-0.797 1.569 0.448 1.883-0.946 1.883-0.946 0.209-0.398-0.837-0.797-0.837-0.797-0.052-0.996-1.255-1.295-1.255-1.295-0.575-0.498-0.418 0-0.418 0-0.575-0.050-0.942 0.149-0.942 0.149-0.942-0.847-1.517 0.448-1.517 0.448-0.157 0-0.262 0.050-0.418 0.050 0.942 1.195 1.935 2.241 2.877 3.088z"></path>
<path d="M30.429 28.782c-0.272-0.252-2.227-1.362-2.227-1.362 0.435-0.202 0.489-1.059 0.489-1.362-1.032-0.908-2.119-2.068-3.205-3.379-0.543 0.101-4.129 1.513-7.606 0.050-1.304-0.555-2.445 0.252-2.445 0.252-0.978 1.059-0.543 2.774-0.543 2.774l1.358-1.362c0.706-0.504 0.978-0.403 1.141-0.151 0.109 0.202 0.054 0.454-0.109 0.656-1.304 1.261-0.869 2.572-0.869 2.572l-1.847 1.513c-0.706 0.706 0.109 1.261 0.109 1.261 0.163-0.555 1.467-1.412 1.467-1.412-0.054 0.656 0.272 0.807 0.272 0.807 0.924-0.252 0.706-1.11 0.706-1.11 1.467-0.050 1.63-0.656 1.63-0.656 1.467 0.252 2.173-0.656 2.173-0.656 0.38 0.656 3.694 1.362 3.694 1.362 0.217 0.101 1.467 2.421 1.467 2.421 0.272 0.050 0.543 0.403 0.543 0.403 0.598 0.353 1.847-0.050 1.847-0.050-0.109-0.454-0.761-0.454-0.761-0.454-1.467 0-1.25-2.27-1.25-2.27 0.054-0.303 1.195 0.252 1.195 0.252l2.499 0.857c1.25 0.605 1.793-0.101 1.793-0.101 0.38-0.555-1.521-0.857-1.521-0.857z"></path>
<path d="M18.215 11.014c1.241 2.511 3.885 7.484 7.283 11.521 0.162-0.049 0.378-0.049 0.593-0.098-0.054-0.049-0.108-0.098-0.162-0.197-3.399-3.988-6.043-8.961-7.23-11.423-0.216 0.148-0.432 0.197-0.486 0.197z"></path>
<path d="M18.48 10.434c0.543-0.2 0.869-0.748 0.652-1.247s-0.814-0.798-1.357-0.599l-2.932 0.948c-3.421-2.944-3.584-3.443-4.941-3.642-1.738-0.249-3.367 0.898-3.638 2.495l-1.303 8.382c-0.271 1.597 0.977 3.093 2.715 3.343 0.054 0 0.109 0 0.163 0l1.412 3.892-2.878 3.892c-0.489 0.649-0.326 1.597 0.434 2.046 0.706 0.449 1.738 0.299 2.226-0.399l3.366-4.49c0.271-0.399 0.38-0.848 0.217-1.297l-1.792-4.939c0.271-0.349 0.489-0.798 0.543-1.247l1.195-7.434 1.357 1.197c0.271 0.249 0.706 0.349 1.086 0.2l3.475-1.098z"></path>
</symbol>
<symbol id="icon-icon_wash" viewBox="0 0 32 32">
<path d="M22.772 14.919c-0.2-0.463-0.549-1.030-1.247-1.493-0.399-0.257-1.945-0.463-1.995 0.978 0 0-0.648 0.103-0.599 0.566 0 0-0.399 1.39 1.496 1.236 0 0 0.349 2.625 0.648 3.192 0 0 0.15 0.515 0.2 1.030h0.798l0.050-1.030c0 0 0.449 0.309 0.798 1.030h1.147c-0.050-0.412-0.1-0.772-0.2-1.030 0 0 1.696 0 2.294-0.772 0 0 0.499 0.978 1.097 1.030v0.824h0.798c0.050-0.154 0.050-0.309 0.1-0.566 0 0 0.299 0.154 0.449 0.566h0.698c-0.1-0.36-0.998-3.707-1.297-3.964 0 0 0.449-0.051 0.599 0.515 0 0 0.249 1.184 0.748 1.133 0 0 0.349-0.772-0.249-1.75 0 0-0.249-0.721-1.546-0.618l-3.741-0.103c-0.499-0.103-0.848-0.412-1.047-0.772z"></path>
<path d="M18.233 10.955c0.299-0.412 0.249-1.030-0.15-1.39-0.399-0.309-0.998-0.257-1.347 0.154-0.948 1.236-2.644 1.441-3.841 0.927l-0.648 1.853c2.045 0.824 4.539 0.412 5.986-1.544z"></path>
<path d="M9.753 7.712c1.35 0 2.444-1.129 2.444-2.522s-1.094-2.523-2.444-2.523-2.444 1.129-2.444 2.523c0 1.393 1.094 2.522 2.444 2.522z"></path>
<path d="M11.2 20.994l-2.095-0.875 1.247-3.655c-2.793-1.596-3.791-4.118-3.841-4.273-0.299-0.772 0.050-1.596 0.798-1.905s1.546 0.051 1.846 0.824c0.050 0.103 0.648 1.441 2.195 2.523l0.948-2.677c0.1-0.309 0.050-0.618-0.15-0.875-1.796-2.059-3.891-2.831-6.185-2.111-0.648 0.206-1.097 0.721-1.247 1.39l-1.995 10.708c0 0.052 0 0.052 0 0.103s0 0.154 0 0.206l0.1 4.891-1.097-0.257c-0.748-0.154-1.546 0.36-1.696 1.133s0.349 1.596 1.097 1.75l2.843 0.618c0.449 0.103 0.848 0 1.197-0.309s0.549-0.721 0.499-1.184l-0.1-5.148 3.641 1.493v4.479c0 0.824 0.648 1.493 1.447 1.493s1.447-0.669 1.447-1.493v-5.457c0.050-0.618-0.349-1.133-0.898-1.39z"></path>
<path d="M15.041 15.382c-4.739-0.36-6.235-3.912-6.285-4.067-0.2-0.515-0.748-0.721-1.247-0.515s-0.698 0.772-0.499 1.287c0.1 0.206 1.995 4.839 7.931 5.302 0.549 0.051 0.998-0.36 0.998-0.927s-0.349-1.030-0.898-1.081z"></path>
<path d="M23.57 8.69c-0.998 0.206-1.746 1.133-1.746 2.214h4.439c0-1.184-0.848-2.111-1.945-2.265-1.496-1.699-3.891-1.030-5.786 0.669 0.1 0.103 0.2 0.257 0.299 0.412 1.347-1.287 3.192-2.162 4.739-1.030z"></path>
<path d="M31.152 20.891h-14.016c-0.399 0-0.748 0.36-0.748 0.772s0.349 0.772 0.748 0.772h0.15v1.287c0 2.008 1.596 3.655 3.542 3.655h6.734c1.945 0 3.541-1.647 3.541-3.655v-1.287h0.15c0.399 0 0.748-0.36 0.748-0.772-0.1-0.463-0.449-0.772-0.848-0.772z"></path>
<path d="M22.223 11.933l0.050-0.463c0-0.154-0.050-0.257-0.2-0.257s-0.249 0.052-0.249 0.206l-0.050 0.463c0 0.154 0.050 0.257 0.2 0.257 0.1 0 0.2-0.103 0.249-0.206z"></path>
<path d="M21.625 12.551l-0.050 0.463c0 0.154 0.050 0.257 0.2 0.257s0.249-0.052 0.249-0.206l0.050-0.463c0-0.154-0.050-0.257-0.2-0.257-0.1 0-0.2 0.103-0.249 0.206z"></path>
<path d="M23.321 12.139c0.15 0 0.249-0.103 0.249-0.257v-0.515c0-0.154-0.1-0.257-0.249-0.257s-0.249 0.103-0.249 0.257v0.515c0 0.103 0.15 0.257 0.249 0.257z"></path>
<path d="M23.021 13.066c0 0.154 0.1 0.257 0.249 0.257s0.249-0.103 0.249-0.257v-0.515c0-0.154-0.1-0.257-0.249-0.257s-0.249 0.103-0.249 0.257v0.515z"></path>
<path d="M24.668 11.161c-0.15 0-0.249 0.103-0.249 0.257v0.515c0 0.154 0.1 0.257 0.249 0.257s0.249-0.103 0.249-0.257v-0.515c0-0.154-0.1-0.257-0.249-0.257z"></path>
<path d="M24.518 12.602v0.515c0 0.154 0.1 0.257 0.249 0.257s0.249-0.103 0.249-0.257v-0.515c0-0.154-0.1-0.257-0.249-0.257-0.2 0-0.299 0.103-0.249 0.257z"></path>
<path d="M25.964 11.161c-0.15 0-0.2 0.154-0.2 0.257l0.050 0.463c0 0.103 0.1 0.206 0.249 0.206s0.249-0.154 0.249-0.309l-0.1-0.412c0-0.154-0.15-0.257-0.249-0.206z"></path>
<path d="M25.915 12.654l0.050 0.463c0 0.103 0.15 0.206 0.249 0.206 0.15 0 0.249-0.154 0.2-0.257v-0.515c0-0.154-0.15-0.206-0.249-0.206-0.15 0.051-0.249 0.154-0.249 0.309z"></path>
</symbol>
<symbol id="icon-instagram" viewBox="0 0 32 32">
<path d="M16 10.25c-1.137 0-2.249 0.337-3.194 0.969s-1.683 1.53-2.118 2.581c-0.435 1.051-0.549 2.207-0.327 3.322s0.77 2.14 1.574 2.944c0.804 0.804 1.829 1.352 2.944 1.574s2.272 0.108 3.322-0.327c1.051-0.435 1.949-1.172 2.581-2.118s0.969-2.057 0.969-3.194c0-1.525-0.606-2.987-1.684-4.066s-2.541-1.684-4.066-1.684zM16 20.25c-0.841 0-1.662-0.249-2.361-0.716s-1.244-1.131-1.565-1.907-0.406-1.631-0.242-2.456c0.164-0.825 0.569-1.582 1.163-2.176s1.352-0.999 2.176-1.163c0.824-0.164 1.679-0.080 2.456 0.242s1.44 0.866 1.907 1.565c0.467 0.699 0.716 1.521 0.716 2.361-0.003 1.126-0.452 2.205-1.248 3.002s-1.875 1.245-3.002 1.248zM21.5 3.75h-11c-1.79 0-3.507 0.711-4.773 1.977s-1.977 2.983-1.977 4.773v11c0 1.79 0.711 3.507 1.977 4.773s2.983 1.977 4.773 1.977h11c1.79 0 3.507-0.711 4.773-1.977s1.977-2.983 1.977-4.773v-11c0-1.79-0.711-3.507-1.977-4.773s-2.983-1.977-4.773-1.977zM26.75 21.5c0 1.392-0.553 2.728-1.538 3.712s-2.32 1.538-3.712 1.538h-11c-1.392 0-2.728-0.553-3.712-1.538s-1.538-2.32-1.538-3.712v-11c0-1.392 0.553-2.728 1.538-3.712s2.32-1.538 3.712-1.538h11c1.392 0 2.728 0.553 3.712 1.538s1.538 2.32 1.538 3.712v11zM23.75 9.5c0 0.247-0.073 0.489-0.211 0.694s-0.332 0.366-0.561 0.46c-0.229 0.095-0.48 0.119-0.722 0.071s-0.465-0.167-0.64-0.342-0.294-0.398-0.342-0.64c-0.048-0.242-0.023-0.494 0.071-0.722s0.255-0.424 0.46-0.561c0.206-0.137 0.447-0.211 0.695-0.211 0.331 0 0.649 0.132 0.884 0.366s0.366 0.552 0.366 0.884z"></path>
</symbol>
<symbol id="icon-pawprint_grey" viewBox="0 0 32 32">
<path d="M14.94 15.809c-2.486 0.476-2.725 2.602-4.686 4.866-2.837 3.304-1.807 5.606 0.34 5.739 2.087 0.166 3.509-2.166 5.725-2.426 2.208-0.398 4.271 1.349 6.26 0.497 1.929-0.82 2.176-3.307-1.618-5.553-2.55-1.487-3.466-3.493-6.022-3.122z"></path>
<path d="M8.985 15.097c1.719 1.476 2.151 3.497 1.087 4.503s-3.401 0.588-5.060-0.921c-1.719-1.476-2.212-3.464-1.087-4.503s3.341-0.555 5.060 0.921z"></path>
<path d="M20.995 13.248c-1.195 1.865-1.002 3.802 0.372 4.357s3.415-0.538 4.515-2.42c1.195-1.865 1.002-3.802-0.372-4.357s-3.415 0.538-4.515 2.42z"></path>
<path d="M13.967 9.961c0.808 2.133 0.173 4.307-1.438 4.877s-3.623-0.771-4.43-2.905c-0.808-2.133-0.172-4.307 1.438-4.877s3.623 0.771 4.43 2.905z"></path>
<path d="M14.505 9.525c-0.098 2.201 1.115 3.908 2.729 3.874s2.979-1.805 3.077-4.006c0.098-2.201-1.115-3.908-2.729-3.874s-2.979 1.805-3.077 4.006z"></path>
</symbol>
<symbol id="icon-pawprint_orange" viewBox="0 0 32 32">
<path d="M15.558 18.557c0.181 3.691 2.861 4.162 5.358 7.263 3.695 4.434 6.668 3.117 7.173-0.081 0.477-3.073-2.121-5.266-2.292-8.55s2.271-6.254 1.525-9.188c-0.746-2.934-3.823-3.4-7.096 1.989-2.21 3.718-4.757 4.905-4.668 8.566z"></path>
<path d="M9.971 9.458c2.092 1.699 4.582 1.093 5.468-0.778s-0.185-5.15-2.303-6.731c-2.092-1.699-4.582-1.093-5.468 0.778-0.86 1.752 0.211 5.032 2.303 6.731z"></path>
<path d="M4.798 18.931c2.467 0.132 4.711-1.56 4.987-4.028 0.248-2.343-1.527-4.403-4.077-4.562-2.467-0.132-4.712 1.56-4.987 4.028-0.248 2.343 1.61 4.43 4.077 4.562z"></path>
<path d="M5.972 30.71c2.242 0.049 4.481-1.872 4.788-4.366 0.279-2.367-1.157-5.012-3.474-5.085-2.242-0.049-4.481 1.872-4.788 4.366-0.279 2.367 1.232 5.037 3.474 5.085z"></path>
</symbol>
<symbol id="icon-arrow" viewBox="0 0 41 32">
<path d="M8.173 25.125c1.281-8.416 8.275-15.263 15.398-15.252 0.042 0.215 0.135 0.486 0.067 0.694-1.148 3.54 0.383 6.288 2.864 8.723 1.91 1.922 4.115 3.49 6.752 4.288 0.755 0.205 1.509 0.411 2.328 0.461 2.999 0.236 4.577-1.366 4.427-4.295-0.099-1.97-0.984-3.617-2.207-5.126-2.086-2.623-4.815-4.595-8.019-5.959-0.642-0.252-1.284-0.503-2.193-0.877 3.11-3.367 7.32-4.119 11.348-5.465-0.71-0.043-1.413-0.193-2.129-0.13-3.706 0.57-7.171 1.685-9.953 4.17-0.809 0.694-1.552 1.179-2.753 1.106-4.643-0.231-8.533 1.549-11.794 4.695-2.445 2.346-4.312 5.099-5.597 8.206-0.321 0.777-0.643 1.553-1.212 2.793-1.495-2.427-2.792-4.524-4.088-6.621-0.167 0.043-0.337 0.139-0.504 0.182-0.080 0.42-0.277 0.939-0.135 1.319 0.654 1.845 1.309 3.69 2.075 5.489 0.722 1.637 1.556 3.228 2.278 4.864 0.725 1.584 1.576 2.008 2.691 0.802 1.934-2.059 3.659-4.289 5.439-6.517 0.238-0.304 0.055-0.899 0.029-1.379-0.552 0.072-1.259-0.024-1.606 0.274-1.217 1.094-2.22 2.253-3.505 3.555zM25.815 9.903c5.295 1.226 9.295 3.913 11.689 8.678 0.484 1.038 0.844 2.335-0.188 3.068-0.687 0.489-2.004 0.515-2.926 0.352-3.516-0.746-6.129-2.817-8.264-5.549-1.47-1.948-1.838-3.988-0.312-6.549z"></path>
</symbol>
<symbol id="icon-Bone" viewBox="0 0 73 32">
<path d="M72.673 13.749c0.834-1.892 0.379-4.677 0-6.753-0.295-1.765-1.027-3.222-2.124-4.502s-2.718-1.886-4.247-2.251c-1.214-0.314-3.038-0.336-4.247 0s-1.168 1.335-2.124 2.251c-2.383 2.173-5.455 2.326-8.494 2.251h-29.731c-3.039 0.076-6.112-0.078-8.494-2.251-0.956-0.916-0.914-1.915-2.124-2.251s-3.034-0.314-4.247 0c-1.529 0.365-3.151 0.971-4.247 2.251s-1.828 2.737-2.124 4.502c-0.38 2.076-0.834 4.861 0 6.753 0.302 0.681 2.124 1.486 2.124 2.251s-1.821 1.57-2.124 2.251c-0.832 1.892-0.378 4.677 0 6.753 0.296 1.766 1.028 3.22 2.124 4.502s2.718 1.882 4.247 2.251c1.214 0.313 3.038 0.336 4.247 0s1.168-1.335 2.124-2.251c2.382-2.176 5.454-2.322 8.494-2.251h29.731c3.040-0.071 6.113 0.075 8.494 2.251 0.956 0.916 0.914 1.915 2.124 2.251s3.034 0.313 4.247 0c1.529-0.369 3.151-0.969 4.247-2.251s1.828-2.736 2.124-4.502c0.378-2.076 0.832-4.861 0-6.753-0.302-0.681-2.124-1.486-2.124-2.251s1.822-1.57 2.124-2.251z"></path>
</symbol>
   <symbol id="icon-Arrow_button" viewBox="0 0 36 32">
      <path d="M1.062 17.414a2 2 0 0 1 0-2.828L13.79 1.858a2 2 0 1 1 2.828 2.828L5.304 16l11.314 11.314a2 2 0 1 1-2.828 2.828L1.062 17.414zM36 18H2.476v-4H36v4z"/>
    </symbol>
    <symbol id="icon-close" viewBox="0 0 32 32">
<path fill="none" stroke="#011c44" style="stroke: var(--color1, #011c44)" stroke-linejoin="miter" stroke-linecap="round" stroke-miterlimit="4" stroke-width="2.6667" d="M12 8l8 8 8-8"></path>
<path fill="none" stroke="#011c44" style="stroke: var(--color1, #011c44)" stroke-linejoin="miter" stroke-linecap="round" stroke-miterlimit="4" stroke-width="2.6667" d="M12 24l8-8 8 8"></path>
</symbol>
</defs>
</svg>
